<svg version="1.1" xmlns="http://www.w3.org/2000/svg" xmlns:xlink="http://www.w3.org/1999/xlink" width="300" height="300.1" viewBox="0,0,300,300.1"><defs><linearGradient x1="240" y1="255.47" x2="240" y2="450.41" gradientUnits="userSpaceOnUse" id="color-1"><stop offset="0" stop-color="#03070a"/><stop offset="1" stop-color="#375768"/></linearGradient></defs><g transform="translate(-90,-52.4)"><g data-paper-data="{&quot;isPaintingLayer&quot;:true}" stroke-linejoin="miter" stroke-miterlimit="10" stroke-dasharray="" stroke-dashoffset="0" style="mix-blend-mode: normal"><path d="M390,266.6v49.5c0,20.10316 -16.29683,36.4 -36.4,36.4h-227.2c-20.10791,-0.08251 -36.37266,-16.39194 -36.4,-36.5v0v-49.5h300z" fill="url(#color-1)" fill-rule="nonzero" stroke="none" stroke-width="1" stroke-linecap="butt"/><path d="M390,88.8v180.6c0,20.10316 -16.29683,36.4 -36.4,36.4h-227.2c-20.10317,0 -36.4,-16.29684 -36.4,-36.4v-180.6c0,-20.10317 16.29684,-36.4 36.4,-36.4h227.2c20.10316,0 36.4,16.29683 36.4,36.4z" fill="#1d272c" fill-rule="nonzero" stroke="none" stroke-width="1" stroke-linecap="butt"/><path d="M265.26143,189.6999l-6.19615,0.2694c0,1.48887 0.25503,3.64136 0.76509,6.45746c0.18106,0.99297 0.37506,1.98354 0.5819,2.97146c0.34773,1.65174 0.63885,3.3149 0.87285,4.98655c0.3161,2.29887 0.47414,4.40825 0.47414,6.32815c-0.04787,0.94047 -0.51693,1.8093 -1.27695,2.36531c-1.5661,1.3452 -4.57437,2.49103 -9.02482,3.43752c-1.45259,0.30573 -2.91327,0.57162 -4.38041,0.79742c-7.49465,1.16919 -14.2251,1.89027 -20.19136,2.16326c-1.75437,0.08244 -3.51041,0.12465 -5.26673,0.12662c-2.20252,0.01121 -4.40348,-0.11836 -6.58947,-0.38793c-4.90483,-0.63218 -8.60366,-2.04203 -11.09649,-4.22954c-1.10978,-0.96342 -2.01252,-2.14202 -2.65357,-3.46446c-0.70299,-1.53271 -1.2447,-3.13436 -1.61639,-4.77912c-1.27515,-5.24966 -2.01779,-12.95893 -2.22792,-23.1278c-0.04234,-2.10194 -0.06299,-4.20425 -0.06196,-6.3066c0,-3.41596 5.27929,-6.09468 15.83789,-8.03613c2.43281,-0.4408 4.87715,-0.8154 7.33031,-1.12339c5.74716,-0.898 11.00041,-2.78378 15.75977,-5.65735c1.45698,-0.85717 2.77732,-1.92778 3.91704,-3.1762c2.1379,-2.37774 3.28998,-5.48048 3.222,-8.6773c0.12165,-2.54924 -1.31166,-4.91856 -3.62609,-5.9941c-1.80137,-0.92852 -4.27355,-1.43949 -7.41652,-1.53287c-0.36,-0.01074 -0.72013,-0.01612 -1.08028,-0.01616c-8.08193,0 -16.56796,2.06538 -25.45809,6.19615c-1.04971,0.488 -2.10128,0.97201 -3.15465,1.45205c-5.55498,2.53055 -9.24034,4.04905 -11.05608,4.55552c-0.32778,0.10389 -0.66706,0.16723 -1.01024,0.18858c-4.84737,0 -9.06883,-5.5478 -12.66439,-16.64339c-0.13684,-0.42289 -0.27065,-0.84674 -0.4014,-1.27156c-2.11465,-6.77052 -3.65655,-13.70677 -4.6094,-20.73554c-0.60183,-4.5127 -0.9069,-9.06002 -0.91326,-13.61267c0.02711,-0.85309 0.2962,-1.68088 0.77587,-2.38686c1.06682,-1.70259 3.23816,-3.5309 6.51404,-5.48494c0.35136,-0.20893 0.7052,-0.41369 1.06143,-0.61423c1.9471,-1.07979 3.965,-2.02664 6.0399,-2.83406c4.35347,-1.72594 9.71269,-3.32706 16.07766,-4.80336c1.0666,-0.24689 2.13525,-0.48486 3.20583,-0.7139c7.37654,-1.55803 14.85234,-2.60222 22.37348,-3.12501c4.83692,-0.34572 9.68475,-0.51645 14.53401,-0.51186c9.12542,-0.07293 18.24104,0.61462 27.25228,2.0555c32.23973,5.45261 48.90826,21.75656 50.00561,48.91186c0.03936,0.97024 0.05912,1.94116 0.05927,2.91219c0.02495,4.38613 -0.41118,8.76274 -1.30119,13.05771c-0.97604,4.72384 -2.6724,9.26957 -5.02966,13.47797c-1.59979,2.86126 -3.46313,5.56696 -5.56576,8.08193c-2.91848,3.45189 -6.13688,6.19076 -9.65522,8.21663c-12.03309,6.64514 -23.0784,10.05752 -33.13592,10.23711zM243.04959,229.17745c-3.36421,-0.28704 -6.73946,-0.42546 -10.11589,-0.41487c-25.14379,0 -37.71568,8.08193 -37.71568,24.2458c0,13.13224 8.29924,20.93041 24.89774,23.3945c4.24614,0.59631 8.53024,0.88084 12.81794,0.8513c25.14379,0 37.71568,-8.08193 37.71568,-24.2458c0.0012,-0.90588 -0.02755,-1.81155 -0.08621,-2.71553c-0.16703,-2.51797 -0.57382,-4.7863 -1.22037,-6.80499c-1.24497,-4.37921 -4.29719,-8.02032 -8.39174,-10.01082c-0.40614,-0.19767 -0.81663,-0.38629 -1.23115,-0.56574c-4.37502,-1.89117 -9.93179,-3.13579 -16.67033,-3.73385z" fill="#ffffff" fill-rule="evenodd" stroke="#000000" stroke-width="0" stroke-linecap="round"/></g></g></svg>